<?xml version="1.0" standalone="no"?>
<!DOCTYPE svg PUBLIC "-//W3C//DTD SVG 20010904//EN"
 "http://www.w3.org/TR/2001/REC-SVG-20010904/DTD/svg10.dtd">
<svg version="1.0" xmlns="http://www.w3.org/2000/svg"
 width="200.000000pt" height="200.000000pt" viewBox="0 0 200.000000 200.000000"
 preserveAspectRatio="xMidYMid meet">
<metadata>
Created by potrace 1.14, written by Peter Selinger 2001-2017
</metadata>
<g transform="translate(0.000000,200.000000) scale(0.100000,-0.100000)"
fill="#000000" stroke="none">
<path d="M323 1874 c-85 -35 -145 -91 -185 -172 l-33 -67 0 -635 0 -635 26
-56 c38 -80 91 -134 168 -172 l66 -32 620 -2 c441 -2 631 0 655 8 106 35 177
94 223 188 l32 66 0 635 0 635 -26 56 c-37 79 -90 133 -167 171 l-67 33 -625
2 -625 2 -62 -25z"/>
</g>
</svg>
